<?xml version="1.0"?>
<svg style="enable-background:new 0 0 128 128;" version="1.1" viewBox="0 0 128 128"
	xml:space="preserve" xmlns="http://www.w3.org/2000/svg" xmlns:xlink="http://www.w3.org/1999/xlink"><style type="text/css">
	.st0{fill:white;}
</style><g id="_x31_2"/><g id="_x31_1"/><g id="_x31_0"/><g id="_x39_"/><g id="_x38_"/><g id="_x37_"/><g id="_x36_"/><g id="_x35_"/><g id="_x34_"/><g id="_x33__Flask"/><g id="_x32__Test_tube"/><g id="_x31__Chemical"><path class="st0" d="M104,44.7V29.9l-24-16V8h-8v5.9l-24,16v24l-12.8,8.5c-2-1.5-4.5-2.4-7.2-2.4c-6.6,0-12,5.4-12,12   c0,5.2,3.3,9.6,8,11.3v14.8l24,16v5.9h8v-5.9l24-16v-24l12.8-8.5c2,1.5,4.5,2.4,7.2,2.4c6.6,0,12-5.4,12-12   C112,50.8,108.7,46.4,104,44.7z M28,76c-2.2,0-4-1.8-4-4s1.8-4,4-4s4,1.8,4,4S30.2,76,28,76z M72,93.9l-20,13.3L32,93.9V83.3   c4.7-1.7,8-6.1,8-11.3c0-1-0.1-2-0.4-2.9L52,60.8l20,13.3V93.9z M88,56c0,1,0.1,2,0.4,2.9L76,67.2L56,53.9V34.1l20-13.3l20,13.3   v10.6C91.3,46.4,88,50.8,88,56z M100,60c-2.2,0-4-1.8-4-4s1.8-4,4-4s4,1.8,4,4S102.2,60,100,60z"/></g></svg>